<svg xmlns="http://www.w3.org/2000/svg" width="220" height="80" viewBox="0 0 1340 223">
  <g fill="none" fill-rule="evenodd">
    <polygon fill="#727272" points="123.01 170 111 190 135 190"/>
    <path fill="#DC4E44" d="M124.754834,0.0248739936 C157.150115,0.34823591 187.888889,13.2205276 210.824648,36.1294757 C233.573582,58.8456503 246.439528,89.2292335 246.962635,121.291811 L247,121.291811 L247,124.556523 L246.968863,124.56896 C246.738446,147.844799 240.012783,170.41173 227.383481,190 L223.615864,190 L216.852835,178.309223 L217.43199,177.308045 C226.617502,161.432218 231.537201,143.622439 231.873484,125.327617 L231.867257,125.327617 L231.867257,121.291811 L231.873484,121.291811 C231.356604,93.240165 220.03507,66.6871768 200.12586,46.8066374 C180.21665,26.9198796 153.619141,15.6146495 125.514585,15.1047326 L125.514585,15.1047326 L121.47296,15.1047326 L121.47296,15.1047326 C93.3808587,15.620868 66.7895772,26.9198796 46.8803671,46.8004189 C26.9649295,66.6871768 15.6433956,93.2463835 15.1327434,121.304248 L15.1327434,121.304248 L15.1327434,125.340054 L15.1327434,125.340054 C15.4690265,143.634876 20.388725,161.438437 29.5680105,177.308045 L30.1471649,178.309223 L23.3903638,190 L19.6227466,190 C7.1366765,170.629377 0.411012783,148.342279 0.0435922648,125.340054 L0,125.340054 L0,122.081561 L0.031137332,122.069124 C0.354965585,89.7142764 13.245821,59.0259868 36.1815798,36.1170387 C58.9367421,13.400864 89.3641429,0.553446357 121.47296,0.0373109904 L121.47296,0 L124.736152,0 L124.754834,0.0248739936 L124.754834,0.0248739936 Z"/>
    <polygon fill="#DC4E44" points="154.926 94.377 131.363 135.088 163.154 190 146.423 190 122.997 149.537 99.577 190 82.846 190 114.637 135.088 91.074 94.377 35.725 190 19 190 83.831 78 98.318 78 123.003 120.639 147.682 78 162.169 78 227 190 210.275 190"/>
    <path fill="#727272" d="M336.797772 79L358.202228 79 358.276743 79 396 189 374.521029 189 365.864861 163.762442 329.135139 163.762442 320.478971 189 299 189 336.723257 79 336.797772 79 336.797772 79zM360.655016 148.561562L347.503105 107.949329 334.351194 148.561562 360.655016 148.561562 360.655016 148.561562zM412 121.560876L412.217744 121.560876 412.074655 121.510935C441.482553 102.021446 480.720043 105.767023 481 129.507743L481 189 458.161753 189 458.161753 131.399259C455.007574 124.276419 444.692724 122.553454 434.844468 129.907271L434.844468 189 412 189 412 121.560876 412 121.560876zM569.968835 116.059075C569.968835 139.514646 569.993767 162.970218 570 186.394624 569.544991 226.411836 528.238934 226.386903 505.482269 219.636336L508.075195 204.290171C525.577445 211.346166 545.354738 213.496624 547.118676 189.679526L547.112443 183.926272C540.823351 188.956473 533.356223 191.692853 526.219444 191.755185 505.295279 191.948414 499.361468 170.842763 499.012421 152.835018 498.675839 135.512925 505.158154 119.668104 521.120854 112.917536 532.396341 108.14913 555.445957 109.246175 569.968835 116.059075L569.968835 116.059075zM547.081278 169.876615L547.081278 125.514855C544.75637 123.800722 542.013853 123.07767 538.242891 123.07767 522.772597 123.102603 522.267725 140.786221 522.192929 151.71304 522.124366 161.617611 522.517045 174.227396 535.332082 174.73852 539.477024 174.900583 543.802722 173.261249 547.081278 169.876615L547.081278 169.876615zM593.09059 116.535683L615.905066 111 615.855362 162.741177C616.805965 175.6266 628.71025 179.285885 639.185524 169.623377L639.185524 116.535683 662 111 662 189.578016 640.32252 189.509443 640.390864 181.642291C633.680724 187.757724 624.715232 192.30222 617.141472 191.984292 604.404632 191.460647 592.202118 185.594569 593.040886 159.468391 593.040886 145.167878 593.09059 130.892301 593.09059 116.535683L593.09059 116.535683z"/>
    <polygon fill="#727272" points="686 76.528 709 71 709 189 686 189"/>
    <path fill="#727272" d="M773.968964 181.260811C766.875255 187.629055 758.088087 191.302565 750.191552 190.980436 736.110759 190.410516 727.361223 181.898874 727.009987 168.821672 726.483133 148.917811 746.861084 140.790247 773.975236 142.146906L773.975236 139.408809C774.621259 115.856217 748.811697 124.956363 732.949636 133.065344L732.849283 116.816409C753.942249 108.837519 796.542139 97.6249492 797 137.166295L797 188.830844 773.994053 188.843234 773.968964 181.260811 773.968964 181.260811zM773.975236 153.873644C760.772532 153.086905 748.247211 156.940065 749.250742 168.493348 750.254273 180.089995 766.059886 176.261615 773.968964 168.908399L773.975236 153.873644zM820.068715 121.546379L820.068715 121.546379C829.838791 114.607474 882.006247 94.1641545 882 127.645147L882 137.589873 862.184987 141.734546 862.184987 130.918568C861.285441 122.983946 849.553854 122.013122 842.932191 128.485284L842.932191 189 820 189 820.068715 121.546379 820.068715 121.546379zM920 79.0374662C928.438859 79.049955 935.982216 78.9937556 944.34023 79.3746625L973.997501 155.762095 1002.84011 79C1010.86853 79 1018.92183 79.049955 1027 79.0561994L1027 190 1004.16471 190 1004.16471 121.898852 978.120539 189.088321 965.57108 189.281897 938.867721 121.52419 938.867721 190 920 190 920 79.0374662 920 79.0374662z"/>
    <polygon fill="#727272" points="1053 114.535 1076 109 1076 189 1053 189"/>
    <path fill="#DC4E44" d="M1064.99687,75 C1072.17705,75 1078,80.8229492 1078,88.0031273 C1078,95.1770508 1072.17705,101 1064.99687,101 C1057.81669,101 1052,95.1770508 1052,88.0031273 C1052,80.8229492 1057.81669,75 1064.99687,75 Z"/>
    <path fill="#727272" d="M1100 122.563513L1100.21774 122.563513 1100.06843 122.507332C1129.48255 103.024848 1168.72004 106.764036 1169 130.51007L1169 190 1146.15553 190 1146.15553 132.39527C1143.00757 125.278951 1132.6865 123.556052 1122.84447 130.909582L1122.84447 190 1100 190 1100 122.563513 1100 122.563513zM1236.11515 75.5364574L1259 70C1259 109.720501 1258.93768 149.303991 1259 188.980898L1236.86925 188.91862 1236.86925 181.526298C1229.91405 187.778945 1222.35432 190.936407 1215.21838 190.998684 1194.29669 191.191744 1188.36358 170.10463 1188.01457 152.1127 1187.67803 134.805822 1193.12503 117.748052 1209.07961 111.003414 1215.3181 108.369082 1225.74467 108.885984 1236.11515 112.423338L1236.11515 75.5364574zM1236.13384 168.429369L1236.08398 126.610121C1233.75935 124.891266 1229.87665 123.602124 1226.10614 123.60833 1216.92602 123.620808 1213.41726 129.425058 1212.06486 136.418805 1210.53796 144.32803 1210.23881 155.986352 1212.25806 163.845755 1213.67278 169.363529 1216.92602 173.698033 1224.32994 173.996965 1228.4744 174.158886 1232.85567 171.811029 1236.13384 168.429369L1236.13384 168.429369zM1333.96727 114.229174L1333.96727 130.883257C1328.00301 127.199002 1319.93044 124.295309 1311.24838 124.232864 1304.91719 124.182908 1299.78632 126.09997 1299.7801 131.769976 1299.76766 145.28932 1339.9253 136.472085 1340 166.183419 1340.0559 187.30232 1307.06283 198.873379 1278.97674 184.866964 1278.79016 173.989044 1278.83369 168.16917 1278.83369 168.16917 1278.83369 168.16917 1291.81325 175.831172 1302.49169 176.399422 1313.25097 176.98016 1317.38677 172.402941 1317.62932 167.744544 1318.39429 152.788965 1275.46287 161.343931 1277.04255 130.695922 1278.36103 105.143426 1319.45778 105.805343 1333.96727 114.229174L1333.96727 114.229174z"/>
  </g>
</svg>
